<?xml version="1.0" encoding="iso-8859-1"?>
<!-- Generator: Adobe Illustrator 19.0.0, SVG Export Plug-In . SVG Version: 6.00 Build 0)  -->
<!-- License: CC0. Made by SVG Repo: https://www.svgrepo.com/svg/237137/wheel -->
<svg version="1.1" id="Layer_1" xmlns="http://www.w3.org/2000/svg" xmlns:xlink="http://www.w3.org/1999/xlink" x="0px" y="0px"
	 viewBox="0 0 512 512" style="enable-background:new 0 0 512 512;" xml:space="preserve">
<path style="fill:#eee;" d="M437.02,74.98C388.667,26.628,324.381,0,256,0S123.333,26.628,74.98,74.98
	C26.628,123.333,0,187.62,0,256s26.628,132.667,74.98,181.02C123.333,485.372,187.619,512,256,512s132.667-26.628,181.02-74.98
	C485.372,388.667,512,324.38,512,256S485.372,123.333,437.02,74.98z M256,370.971c-63.396,0-114.971-51.575-114.971-114.971
	S192.604,141.029,256,141.029S370.971,192.604,370.971,256S319.396,370.971,256,370.971z"/>
<path style="fill:#444444;" d="M437.02,74.98C388.667,26.628,324.381,0,256,0v141.029c63.396,0,114.971,51.575,114.971,114.971
	S319.396,370.971,256,370.971V512c68.381,0,132.667-26.628,181.02-74.98C485.372,388.667,512,324.38,512,256
	S485.372,123.333,437.02,74.98z"/>


</svg>
